<?xml version="1.0" encoding="utf-8"?>
<!-- Generator: Adobe Illustrator 16.0.0, SVG Export Plug-In . SVG Version: 6.00 Build 0)  -->
<!DOCTYPE svg PUBLIC "-//W3C//DTD SVG 1.1//EN" "http://www.w3.org/Graphics/SVG/1.1/DTD/svg11.dtd">
<svg version="1.1" id="Layer_1" xmlns="http://www.w3.org/2000/svg" xmlns:xlink="http://www.w3.org/1999/xlink" x="0px" y="0px"
	 width="67px" height="67px" viewBox="0 0 67 67" enable-background="new 0 0 67 67" xml:space="preserve">
<path fill="#D0D0D0" d="M35.181,67c-1.136,0-2.272,0-3.409,0c-0.285-0.055-0.568-0.116-0.854-0.163
	c-1.915-0.309-3.866-0.471-5.739-0.944C9.049,61.823-1.87,46.25,0.267,29.339c0.95-7.526,4.017-14.073,9.413-19.372
	c8.87-8.707,19.502-11.691,31.64-9.023c12.511,2.751,22.809,13.591,25.023,26.203c0.27,1.533,0.44,3.083,0.657,4.625
	c0,1.136,0,2.272,0,3.409c-0.05,0.23-0.131,0.458-0.146,0.691c-0.283,4.587-1.471,8.939-3.64,12.977
	c-5.078,9.453-12.883,15.323-23.417,17.489C38.278,66.65,36.721,66.783,35.181,67z M45.068,17.165c0-2.951,0-5.8,0-8.727
	c-1.598,0-3.135-0.034-4.671,0.009c-2.022,0.057-4.067,0.011-6.061,0.3c-4.098,0.596-6.764,3.254-7.278,7.34
	c-0.279,2.212-0.132,4.478-0.17,6.72c-0.012,0.722-0.002,1.445-0.002,2.269c-1.723,0-3.356,0-5.015,0c0,2.821,0,5.538,0,8.35
	c1.679,0,3.313,0,5.045,0c0,8.406,0,16.718,0,25.024c3.467,0,6.831,0,10.276,0c0-8.359,0-16.653,0-25.039c0.37,0,0.659,0,0.949,0
	c1.786,0,3.571-0.02,5.356,0.012c0.559,0.01,0.741-0.178,0.797-0.724c0.164-1.584,0.404-3.16,0.584-4.743
	c0.107-0.954,0.157-1.915,0.241-2.97c-2.675,0-5.23,0-7.871,0c0-1.814-0.003-3.539,0.001-5.263c0.004-1.617,0.942-2.553,2.568-2.558
	C41.545,17.16,43.273,17.165,45.068,17.165z"/>
</svg>
